<?xml version="1.0" encoding="UTF-8"?>
<svg id="Calque_2" data-name="Calque 2" xmlns="http://www.w3.org/2000/svg" viewBox="0 0 1024 1028.65">
  <defs>
    <style>
      .cls-1 {
        fill: #fff;
        stroke: #000;
        stroke-miterlimit: 10;
        stroke-width: 20px;
      }

      .cls-2 {
        fill: none;
      }
    </style>
  </defs>
  <g id="_90_sharp_elbow" data-name="90 sharp elbow">
    <g>
      <polygon class="cls-1" points="887.99 136.01 887.99 542 542 542 542 887.99 136.01 887.99 136.01 136.01 887.99 136.01"/>
      <g>
        <path d="m310.33,391.12c-10.6,0-18.77-3.36-24.52-10.08-5.75-6.72-8.63-16.24-8.63-28.54s3.72-22.47,11.15-29.48c7.43-7.01,17.99-10.51,31.66-10.51s23.91,3.8,31.4,11.41c7.49,7.61,11.24,18.22,11.24,31.83l-19.23,15.55h-7.01c-1.54,6.32-4.6,11.21-9.19,14.65-4.59,3.45-10.21,5.17-16.88,5.17Zm-22.04,44.95l-1.71-21.53c34.69-1.42,52.04-15.89,52.04-43.41v-7.01l24.01-8.37v8.12c0,22.96-6.12,40.43-18.37,52.42-12.25,11.99-30.9,18.58-55.97,19.78Zm31.19-66.39c6.15,0,10.91-1.59,14.27-4.79,3.36-3.19,5.04-7.69,5.04-13.5,0-5.47-1.67-9.73-5-12.77-3.33-3.05-7.99-4.57-13.97-4.57s-10.61,1.6-13.89,4.79c-3.28,3.19-4.91,7.75-4.91,13.67,0,5.53,1.59,9.77,4.79,12.73,3.19,2.96,7.75,4.44,13.67,4.44Z"/>
        <path d="m422.52,436.06c-28.54,0-42.81-20.51-42.81-61.52s14.27-63.23,42.81-63.23,42.81,21.08,42.81,63.23-14.27,61.52-42.81,61.52Zm0-21.53c12.99,0,19.48-13.33,19.48-39.99s-6.49-41.7-19.48-41.7-19.82,13.9-19.82,41.7,6.61,39.99,19.82,39.99Zm-.17-24.35c-3.42,0-6.17-1.42-8.25-4.27-2.08-2.85-3.12-6.64-3.12-11.36s1.04-8.52,3.12-11.37c2.08-2.85,4.83-4.27,8.25-4.27s6.18,1.42,8.29,4.27c2.11,2.85,3.16,6.64,3.16,11.37s-1.05,8.52-3.16,11.36c-2.11,2.85-4.87,4.27-8.29,4.27Z"/>
        <path d="m525.06,375.39c-10.08,0-18.22-2.93-24.4-8.8-6.18-5.87-9.27-13.61-9.27-23.24s3.09-17.37,9.27-23.24c6.18-5.87,14.31-8.8,24.4-8.8s18.21,2.93,24.4,8.8c6.18,5.87,9.27,13.62,9.27,23.24s-3.09,17.38-9.27,23.24c-6.18,5.87-14.31,8.8-24.4,8.8Zm0-17.26c4.1,0,7.4-1.35,9.91-4.06,2.51-2.71,3.76-6.28,3.76-10.72s-1.25-8.02-3.76-10.72c-2.51-2.71-5.81-4.06-9.91-4.06s-7.41,1.35-9.91,4.06c-2.51,2.71-3.76,6.28-3.76,10.72s1.25,8.02,3.76,10.72c2.51,2.71,5.81,4.06,9.91,4.06Z"/>
      </g>
    </g>
    <rect class="cls-2" width="1024" height="1028.65"/>
  </g>
</svg>