<?xml version="1.0" encoding="UTF-8"?>
<svg id="Calque_2" data-name="Calque 2" xmlns="http://www.w3.org/2000/svg" viewBox="0 0 1024 1024">
  <defs>
    <style>
      .cls-1 {
        stroke-width: 175px;
      }

      .cls-1, .cls-2, .cls-3 {
        stroke: #000;
        stroke-miterlimit: 10;
      }

      .cls-1, .cls-3, .cls-4 {
        fill: none;
      }

      .cls-5, .cls-2 {
        fill: #fff;
      }

      .cls-2 {
        stroke-width: 20px;
      }

      .cls-3 {
        stroke-width: 10px;
      }
    </style>
  </defs>
  <g id="Flow_speed" data-name="Flow speed">
    <g>
      <polyline class="cls-2" points="88.76 875.96 655.91 875.96 655.91 148.04 88.76 148.04"/>
      <ellipse class="cls-2" cx="655.91" cy="512" rx="106.02" ry="363.96"/>
    </g>
    <g>
      <g>
        <line class="cls-3" x1="156.57" y1="263.54" x2="403.44" y2="263.54"/>
        <polygon points="383.63 292.6 492.04 263.54 383.63 234.49 383.63 292.6"/>
      </g>
      <g>
        <line class="cls-3" x1="29.97" y1="379.04" x2="276.85" y2="379.04"/>
        <polygon points="257.04 408.1 365.45 379.04 257.04 349.99 257.04 408.1"/>
      </g>
      <g>
        <line class="cls-3" x1="128.08" y1="510.1" x2="374.96" y2="510.1"/>
        <polygon points="355.15 539.16 463.55 510.1 355.15 481.05 355.15 539.16"/>
      </g>
      <g>
        <line class="cls-3" x1="88.76" y1="639" x2="335.64" y2="639"/>
        <polygon points="315.83 668.06 424.24 639 315.83 609.95 315.83 668.06"/>
      </g>
      <g>
        <line class="cls-3" x1="156.57" y1="767.9" x2="403.44" y2="767.9"/>
        <polygon points="383.63 796.96 492.04 767.9 383.63 738.85 383.63 796.96"/>
      </g>
    </g>
    <g>
      <g>
        <line class="cls-1" x1="568.88" y1="510.1" x2="856.01" y2="510.1"/>
        <polygon points="834.63 350.64 834.63 669.55 994.03 510.12 834.63 350.64"/>
      </g>
      <g>
        <path class="cls-5" d="m605.3,571.13v-90.58h20.76l2.05,19.14v71.44h-22.82Zm34.78,0v-63.06c0-5.13-1.82-7.69-5.47-7.69-4.33,0-6.49,3.39-6.49,10.17l-5.3-18.71h6.49c1.25-8.66,5.84-12.99,13.76-12.99,4.39,0,7.85,1.62,10.38,4.87,2.53,3.25,3.8,8.18,3.8,14.78v72.63h-17.17Zm28.8,0v-61.35c0-6.27-1.82-9.4-5.47-9.4-4.1,0-6.15,3.39-6.15,10.17l-6.15-18.71h7.69c.51-4.04,2.09-7.22,4.74-9.53,2.65-2.31,6.14-3.46,10.47-3.46,6.1,0,10.55,1.68,13.37,5.04,2.82,3.36,4.23,8.8,4.23,16.32v70.92h-22.73Z"/>
        <path class="cls-5" d="m706.56,587.36l66.22-153.81h23.5l-66.22,153.81h-23.5Z"/>
        <path class="cls-5" d="m846.52,572.84c-6.89,0-13-.21-18.33-.64-5.33-.43-10.01-1.07-14.06-1.92l2.73-22.13c7.18.91,13.22,1.6,18.12,2.05,4.9.46,8.74.68,11.54.68,7.75,0,13.36-.53,16.83-1.58,3.47-1.05,5.21-2.75,5.21-5.08,0-1.37-.43-2.45-1.28-3.25-.86-.8-2.22-1.48-4.1-2.05l-29.48-8.54c-6.04-1.76-10.58-4.46-13.63-8.07-3.05-3.62-4.57-8.47-4.57-14.57,0-9.74,4.1-16.99,12.3-21.75,8.2-4.76,20.65-7.13,37.34-7.13,3.87,0,7.9.14,12.09.43,4.19.29,8.62.71,13.29,1.28l-2.48,21.45c-5.18-.46-9.71-.77-13.59-.94-3.88-.17-7.15-.26-9.83-.26-8.94,0-15.42.5-19.44,1.5-4.02,1-6.02,2.63-6.02,4.91,0,1.42.41,2.52,1.24,3.29.83.77,2.12,1.41,3.89,1.92l25.38,7.01c7.8,2.11,13.63,5.17,17.47,9.19,3.85,4.02,5.77,9.24,5.77,15.68,0,9.63-3.82,16.79-11.45,21.49-7.63,4.7-19.28,7.05-34.95,7.05Z"/>
      </g>
    </g>
    <rect class="cls-4" width="1024" height="1024"/>
  </g>
</svg>