<?xml version="1.0" encoding="UTF-8"?>
<svg id="Calque_2" data-name="Calque 2" xmlns="http://www.w3.org/2000/svg" viewBox="0 0 1024 1024">
  <defs>
    <style>
      .cls-1 {
        fill: #fff;
      }

      .cls-2 {
        stroke: #000;
        stroke-linecap: round;
        stroke-miterlimit: 10;
        stroke-width: 20px;
      }

      .cls-2, .cls-3 {
        fill: none;
      }
    </style>
  </defs>
  <g id="Temperature">
    <g>
      <path class="cls-1" d="m451.34,966.7c-101.78,0-184.58-82.8-184.58-184.58,0-64.64,34-124.64,89.13-158V152.75c0-52.63,42.82-95.45,95.45-95.45s95.45,42.82,95.45,95.45v471.37c55.13,33.37,89.13,93.37,89.13,158,0,101.78-82.8,184.58-184.58,184.58Z"/>
      <path d="m451.34,67.3c47.19,0,85.45,38.26,85.45,85.45v477.11c53.19,29.92,89.13,86.89,89.13,152.26,0,96.42-78.16,174.58-174.58,174.58s-174.58-78.16-174.58-174.58c0-65.37,35.94-122.35,89.13-152.26V152.75c0-47.19,38.26-85.45,85.45-85.45m0-20c-58.15,0-105.45,47.3-105.45,105.45v465.83c-25.12,16.23-46.29,38.11-61.68,63.85-17.96,30.04-27.45,64.52-27.45,99.69,0,26.26,5.15,51.74,15.3,75.75,9.8,23.17,23.83,43.98,41.69,61.84,17.86,17.86,38.67,31.89,61.84,41.69,24,10.15,49.49,15.3,75.75,15.3s51.74-5.15,75.75-15.3c23.17-9.8,43.98-23.83,61.84-41.69,17.86-17.86,31.89-38.67,41.69-61.84,10.15-24,15.3-49.49,15.3-75.75,0-35.17-9.49-69.65-27.45-99.69-15.39-25.74-36.56-47.62-61.68-63.85V152.75c0-58.15-47.3-105.45-105.45-105.45h0Z"/>
    </g>
    <g>
      <line class="cls-2" x1="596.92" y1="83.21" x2="747.25" y2="83.21"/>
      <line class="cls-2" x1="596.92" y1="198.73" x2="747.25" y2="198.73"/>
      <line class="cls-2" x1="596.92" y1="314.24" x2="747.25" y2="314.24"/>
      <line class="cls-2" x1="596.92" y1="429.76" x2="747.25" y2="429.76"/>
      <line class="cls-2" x1="596.92" y1="372" x2="672.08" y2="372"/>
      <line class="cls-2" x1="596.92" y1="256.48" x2="672.08" y2="256.48"/>
      <line class="cls-2" x1="596.92" y1="140.97" x2="672.08" y2="140.97"/>
    </g>
    <g>
      <path d="m508.38,680.87v-354.75c0-31.51-25.54-57.05-57.05-57.05h0c-31.51,0-57.05,25.54-57.05,57.05v354.75c-35.51,19.97-59.51,58.01-59.51,101.65,0,64.37,52.18,116.55,116.55,116.55s116.55-52.18,116.55-116.55c0-43.64-23.99-81.68-59.51-101.65Z"/>
      <g>
        <path class="cls-1" d="m400.06,777.02c-10.08,0-18.22-2.93-24.4-8.8-6.18-5.87-9.27-13.61-9.27-23.24s3.09-17.37,9.27-23.24c6.18-5.87,14.31-8.8,24.4-8.8s18.21,2.93,24.4,8.8c6.18,5.87,9.27,13.62,9.27,23.24s-3.09,17.38-9.27,23.24c-6.18,5.87-14.31,8.8-24.4,8.8Zm0-17.26c4.1,0,7.4-1.35,9.91-4.06,2.51-2.71,3.76-6.28,3.76-10.72s-1.25-8.02-3.76-10.72c-2.51-2.71-5.81-4.06-9.91-4.06s-7.41,1.35-9.91,4.06c-2.51,2.71-3.76,6.28-3.76,10.72s1.25,8.02,3.76,10.72c2.51,2.71,5.81,4.06,9.91,4.06Z"/>
        <path class="cls-1" d="m515.24,837.69c-38.68,0-58.02-20.85-58.02-62.55,0-19.77,4.87-35.08,14.61-45.93,9.74-10.85,23.53-16.28,41.36-16.28,8.03,0,15.15,1.3,21.36,3.89,6.21,2.59,10.91,6.28,14.1,11.07l-12.65,16.58c-2.56-3.19-5.83-5.65-9.78-7.39-3.96-1.74-8.25-2.61-12.86-2.61-9.8,0-17.65,3.46-23.54,10.38-5.9,6.92-8.84,16.73-8.84,29.44,0,27.91,12.39,41.87,37.17,41.87,8.26,0,16.41-1.71,24.44-5.13l3.93,20.85c-9.91,3.87-20.34,5.81-31.27,5.81Z"/>
      </g>
    </g>
    <rect class="cls-3" width="1024" height="1024"/>
  </g>
</svg>