<?xml version="1.0" encoding="UTF-8"?>
<svg id="Calque_2" data-name="Calque 2" xmlns="http://www.w3.org/2000/svg" viewBox="0 0 1024 1024">
  <defs>
    <style>
      .cls-1 {
        fill: #fff;
        stroke: #000;
        stroke-miterlimit: 10;
        stroke-width: 20px;
      }

      .cls-2 {
        fill: none;
      }
    </style>
  </defs>
  <g id="_30_sharp_elbow" data-name="30 sharp elbow">
    <g>
      <polygon class="cls-1" points="631.21 636.82 631.21 643.1 631.21 877.6 225.23 877.6 225.23 526.08 276.89 438.44 449.03 146.4 631.21 253.79 798.77 352.56 631.21 636.82"/>
      <g>
        <path d="m330.8,539.91l-2.05-19.65c7.97-1.03,14.45-2.51,19.44-4.44,4.98-1.94,8.64-4.27,10.98-7.01,2.33-2.73,3.5-5.81,3.5-9.23,0-3.19-1.07-5.65-3.21-7.39-2.14-1.74-5.31-2.61-9.53-2.61-4.56,0-9.57.91-15.04,2.73-5.47,1.82-10.65,4.53-15.55,8.12l-11.79-17.43c5.47-5.24,11.76-9.03,18.88-11.37,7.12-2.33,15.07-3.5,23.84-3.5,11.56,0,20.48,2.35,26.75,7.05,6.27,4.7,9.4,11.41,9.4,20.12,0,7.63-2.61,14.26-7.82,19.87-5.21,5.61-12.01,9.5-20.38,11.66v8.8l-27.43,4.27Zm11.45,52.98c-6.55,0-12.56-.37-18.03-1.11s-10.31-1.74-14.53-2.99l2.14-22.13c3.7.97,7.85,1.99,12.43,3.08,4.58,1.08,10.35,1.62,17.3,1.62,7.52,0,13.34-1.31,17.47-3.93,4.13-2.62,6.19-6.32,6.19-11.11,0-3.53-1.24-6.51-3.72-8.93-2.48-2.42-6.08-4.27-10.81-5.55-4.73-1.28-10.46-1.92-17.18-1.92h-2.73l-2.05-19.65,24.7,9.14c10.54.12,19.1,2.73,25.68,7.86,6.58,5.13,9.87,12.28,9.87,21.45,0,10.82-4.07,19.23-12.22,25.21-8.15,5.98-19.65,8.97-34.52,8.97Z"/>
        <path d="m452.14,592.89c-28.54,0-42.81-20.51-42.81-61.52s14.27-63.23,42.81-63.23,42.81,21.08,42.81,63.23-14.27,61.52-42.81,61.52Zm0-21.53c12.99,0,19.48-13.33,19.48-39.99s-6.49-41.7-19.48-41.7-19.82,13.9-19.82,41.7,6.61,39.99,19.82,39.99Zm-.17-24.35c-3.42,0-6.17-1.42-8.25-4.27-2.08-2.85-3.12-6.64-3.12-11.37s1.04-8.52,3.12-11.36c2.08-2.85,4.83-4.27,8.25-4.27s6.18,1.42,8.29,4.27c2.11,2.85,3.16,6.64,3.16,11.36s-1.05,8.52-3.16,11.37c-2.11,2.85-4.87,4.27-8.29,4.27Z"/>
        <path d="m554.68,532.22c-10.08,0-18.22-2.93-24.4-8.8-6.18-5.87-9.27-13.61-9.27-23.24s3.09-17.37,9.27-23.24c6.18-5.87,14.31-8.8,24.4-8.8s18.21,2.94,24.4,8.8c6.18,5.87,9.27,13.62,9.27,23.24s-3.09,17.38-9.27,23.24c-6.18,5.87-14.31,8.8-24.4,8.8Zm0-17.26c4.1,0,7.4-1.35,9.91-4.06,2.51-2.71,3.76-6.28,3.76-10.72s-1.25-8.02-3.76-10.72c-2.51-2.71-5.81-4.06-9.91-4.06s-7.41,1.35-9.91,4.06c-2.51,2.71-3.76,6.28-3.76,10.72s1.25,8.02,3.76,10.72c2.51,2.71,5.81,4.06,9.91,4.06Z"/>
      </g>
    </g>
    <rect class="cls-2" width="1024" height="1024"/>
  </g>
</svg>