<?xml version="1.0" encoding="UTF-8"?>
<svg id="Calque_2" data-name="Calque 2" xmlns="http://www.w3.org/2000/svg" viewBox="0 0 1024 1024">
  <defs>
    <style>
      .cls-1 {
        fill: #fff;
        stroke: #000;
        stroke-miterlimit: 10;
        stroke-width: 20px;
      }

      .cls-2 {
        fill: none;
      }
    </style>
  </defs>
  <g id="_45_elbow" data-name="45 elbow">
    <g>
      <path class="cls-1" d="m617.85,757.58v32.7h.01v81.77H235.32v-170.25c0-198.15,95.99-361.37,225.04-492.03l57.82-57.82,270.5,270.5-57.82,57.82c-69.91,71.53-113.01,169.38-113.01,277.31Z"/>
      <g>
        <path d="m333,568.01l14.95-90.06h22.99l-15.12,90.06h-22.81Zm0,0l13.42-20.59h46.4v20.59h-59.81Zm58.11,24.44v-121.34h22.47v121.34h-22.47Zm20.76-24.44v-20.59h13.42v20.59h-13.42Z"/>
        <path d="m481.68,594.15c-13.1,0-23.24-3.38-30.42-10.13-7.18-6.75-10.77-16.22-10.77-28.41h23.76c0,5.36,1.59,9.53,4.79,12.52,3.19,2.99,7.72,4.49,13.59,4.49s10.54-1.82,14.01-5.47c3.47-3.65,5.21-8.49,5.21-14.53,0-5.47-1.72-9.81-5.17-13.03-3.45-3.22-8.1-4.83-13.97-4.83-6.95,0-13.47,1.62-19.57,4.87l4.36-21.28c3.08-1.65,6.65-2.91,10.72-3.76,4.07-.85,8.02-1.28,11.83-1.28,10.82,0,19.45,3.56,25.89,10.68,6.44,7.12,9.66,16.66,9.66,28.63,0,8.37-1.81,15.68-5.43,21.92-3.62,6.24-8.72,11.07-15.29,14.48-6.58,3.42-14.31,5.13-23.2,5.13Zm-33.84-54.52l1.71-68.53h22.64l-2.91,52.64-6.15,15.89h-15.29Zm11.36-47.77l-1.54-20.76h60.24v20.76h-58.7Z"/>
        <path d="m584.48,533.48c-10.08,0-18.22-2.93-24.4-8.8-6.18-5.87-9.27-13.61-9.27-23.24s3.09-17.37,9.27-23.24c6.18-5.87,14.31-8.8,24.4-8.8s18.21,2.93,24.4,8.8c6.18,5.87,9.27,13.62,9.27,23.24s-3.09,17.38-9.27,23.24c-6.18,5.87-14.31,8.8-24.4,8.8Zm0-17.26c4.1,0,7.4-1.35,9.91-4.06,2.51-2.71,3.76-6.28,3.76-10.72s-1.25-8.02-3.76-10.72c-2.51-2.71-5.81-4.06-9.91-4.06s-7.41,1.35-9.91,4.06c-2.51,2.71-3.76,6.28-3.76,10.72s1.25,8.02,3.76,10.72c2.51,2.71,5.81,4.06,9.91,4.06Z"/>
      </g>
    </g>
    <rect class="cls-2" width="1024" height="1024"/>
  </g>
</svg>