<?xml version="1.0" encoding="UTF-8"?><svg id="b" xmlns="http://www.w3.org/2000/svg" width="1024" height="1024" viewBox="0 0 1024 1024"><g id="c"><polygon points="828.72 435.71 601.27 647.33 601.27 875.26 195.28 875.26 195.28 479.17 541.76 148.74 828.72 435.71" fill="#fff" stroke="#000" stroke-miterlimit="10" stroke-width="20"/><path d="M288.37,568.12l14.95-90.06h22.99l-15.12,90.06h-22.81ZM288.37,568.12l13.42-20.59h46.4v20.59h-59.81ZM346.47,592.56v-121.34h22.47v121.34h-22.47ZM367.23,568.12v-20.59h13.42v20.59h-13.42Z" fill="#000" stroke-width="0"/><path d="M437.05,594.27c-13.1,0-23.24-3.38-30.42-10.13-7.18-6.75-10.77-16.22-10.77-28.41h23.76c0,5.36,1.59,9.53,4.79,12.52,3.19,2.99,7.72,4.49,13.59,4.49s10.54-1.82,14.01-5.47c3.47-3.65,5.21-8.49,5.21-14.53,0-5.47-1.72-9.81-5.17-13.03-3.45-3.22-8.1-4.83-13.97-4.83-6.95,0-13.47,1.62-19.57,4.87l4.36-21.28c3.08-1.65,6.65-2.91,10.72-3.76,4.07-.85,8.02-1.28,11.83-1.28,10.82,0,19.45,3.56,25.89,10.68,6.44,7.12,9.65,16.66,9.65,28.62,0,8.38-1.81,15.68-5.43,21.92s-8.71,11.07-15.29,14.48-14.31,5.13-23.2,5.13ZM403.21,539.75l1.71-68.53h22.64l-2.91,52.64-6.15,15.89h-15.29ZM414.57,491.99l-1.54-20.76h60.24v20.76h-58.7Z" fill="#000" stroke-width="0"/><path d="M539.84,533.6c-10.08,0-18.21-2.93-24.39-8.8-6.18-5.87-9.27-13.61-9.27-23.24s3.09-17.37,9.27-23.24c6.18-5.87,14.31-8.8,24.39-8.8s18.21,2.93,24.4,8.8c6.18,5.87,9.27,13.62,9.27,23.24s-3.09,17.38-9.27,23.24c-6.18,5.87-14.31,8.8-24.4,8.8ZM539.84,516.34c4.1,0,7.4-1.35,9.91-4.06,2.51-2.71,3.76-6.28,3.76-10.72s-1.25-8.02-3.76-10.72c-2.51-2.7-5.81-4.06-9.91-4.06s-7.41,1.35-9.91,4.06c-2.51,2.71-3.76,6.28-3.76,10.72s1.25,8.02,3.76,10.72c2.51,2.71,5.81,4.06,9.91,4.06Z" fill="#000" stroke-width="0"/><rect width="1024" height="1024" fill="none" stroke-width="0"/></g></svg>