<?xml version="1.0" encoding="UTF-8"?><svg id="b" xmlns="http://www.w3.org/2000/svg" width="1024" height="1024" viewBox="0 0 1024 1024"><g id="c"><polygon points="868.45 460.76 561.54 631.57 561.54 917.99 155.55 917.99 155.55 392.89 561.54 166.94 671.01 106.01 868.45 460.76" fill="#fff" stroke="#000" stroke-miterlimit="10" stroke-width="20"/><path d="M270.66,511.04v-8.12c0-23.01,6.12-40.5,18.37-52.47,12.25-11.96,30.9-18.54,55.97-19.74l1.71,21.53c-34.69,1.42-52.04,15.89-52.04,43.41v7.01l-24.01,8.37ZM313.3,554.27c-13.39,0-23.84-3.82-31.36-11.45-7.52-7.63-11.28-18.23-11.28-31.79l19.23-15.55h7.01c1.54-6.32,4.6-11.21,9.19-14.65,4.58-3.45,10.21-5.17,16.88-5.17,10.6,0,18.77,3.36,24.52,10.08,5.75,6.72,8.63,16.24,8.63,28.54s-3.72,22.47-11.15,29.48c-7.43,7.01-17.99,10.51-31.66,10.51ZM313.47,532.74c5.98,0,10.61-1.61,13.89-4.83,3.27-3.22,4.91-7.76,4.91-13.63,0-5.52-1.6-9.77-4.79-12.73-3.19-2.96-7.75-4.44-13.67-4.44s-10.91,1.6-14.27,4.79c-3.36,3.19-5.04,7.69-5.04,13.5,0,5.47,1.67,9.73,5,12.77,3.33,3.05,7.99,4.57,13.97,4.57Z" fill="#000" stroke-width="0"/><path d="M414.98,554.27c-28.54,0-42.81-20.51-42.81-61.52s14.27-63.23,42.81-63.23,42.81,21.08,42.81,63.23-14.27,61.52-42.81,61.52ZM414.98,532.74c12.99,0,19.48-13.33,19.48-39.99s-6.49-41.7-19.48-41.7-19.82,13.9-19.82,41.7,6.61,39.99,19.82,39.99ZM414.81,508.39c-3.42,0-6.17-1.42-8.25-4.27-2.08-2.85-3.12-6.64-3.12-11.37s1.04-8.52,3.12-11.36c2.08-2.85,4.83-4.27,8.25-4.27s6.18,1.42,8.29,4.27c2.11,2.85,3.16,6.64,3.16,11.36s-1.05,8.52-3.16,11.37c-2.11,2.85-4.87,4.27-8.29,4.27Z" fill="#000" stroke-width="0"/><path d="M517.52,493.6c-10.08,0-18.22-2.93-24.4-8.8-6.18-5.87-9.27-13.61-9.27-23.24s3.09-17.37,9.27-23.24c6.18-5.87,14.31-8.8,24.4-8.8s18.21,2.93,24.4,8.8c6.18,5.87,9.27,13.62,9.27,23.24s-3.09,17.38-9.27,23.24c-6.18,5.87-14.31,8.8-24.4,8.8ZM517.52,476.34c4.1,0,7.4-1.35,9.91-4.06,2.51-2.71,3.76-6.28,3.76-10.72s-1.25-8.02-3.76-10.72c-2.51-2.7-5.81-4.06-9.91-4.06s-7.41,1.35-9.91,4.06c-2.51,2.71-3.76,6.28-3.76,10.72s1.25,8.02,3.76,10.72c2.51,2.71,5.81,4.06,9.91,4.06Z" fill="#000" stroke-width="0"/><rect width="1024" height="1024" fill="none" stroke-width="0"/></g></svg>