<?xml version="1.0" encoding="UTF-8"?>
<svg id="Calque_2" data-name="Calque 2" xmlns="http://www.w3.org/2000/svg" viewBox="0 0 1024 1024">
  <defs>
    <style>
      .cls-1 {
        fill: #000;
      }

      .cls-1, .cls-2 {
        stroke-width: 0px;
      }

      .cls-2 {
        fill: #fff;
      }
    </style>
  </defs>
  <g id="Add_Apd" data-name="Add Apd">
    <g>
      <rect class="cls-2" x="10" y="10" width="1004" height="1004" rx="70.38" ry="70.38"/>
      <path class="cls-1" d="M943.62,20c33.3,0,60.38,27.09,60.38,60.38v863.23c0,33.3-27.09,60.38-60.38,60.38H80.38c-33.3,0-60.38-27.09-60.38-60.38V80.38c0-33.3,27.09-60.38,60.38-60.38h863.23M943.62,0H80.38C35.99,0,0,35.99,0,80.38v863.23c0,44.4,35.99,80.38,80.38,80.38h863.23c44.4,0,80.38-35.99,80.38-80.38V80.38c0-44.4-35.99-80.38-80.38-80.38h0Z"/>
    </g>
    <g>
      <path class="cls-1" d="M168.63,515.65l120.12-416.02h94.92l120.12,416.02h-83.5l-81.45-314.36h-5.27l-81.45,314.36h-83.5ZM211.7,515.65v-71.19h246.09v71.19h-246.09Z"/>
      <path class="cls-1" d="M556.23,650.41V205.1h73.54l5.86,65.62v379.69h-79.39ZM718.54,521.51c-21.68,0-39.07-5.18-52.15-15.53-13.09-10.35-21.19-25.88-24.32-46.58h-27.54l21.09-98.73c0,30.08,4.49,51.96,13.48,65.62,8.98,13.67,24.71,20.51,47.17,20.51,20.7,0,36.37-7.22,47.02-21.68,10.64-14.45,15.97-35.93,15.97-64.45s-5.47-48.88-16.41-64.01c-10.94-15.13-26.47-22.71-46.58-22.71s-35.26,6.94-45.41,20.8c-10.16,13.87-15.23,35.84-15.23,65.92l-18.16-99.32h22.85c3.71-20.9,11.67-36.47,23.88-46.73,12.2-10.25,30.12-15.38,53.76-15.38,38.86,0,68.99,14.06,90.38,42.19s32.08,67.87,32.08,119.24-10.69,91.51-32.08,119.24c-21.39,27.74-51.32,41.6-89.79,41.6Z"/>
    </g>
    <g>
      <path class="cls-1" d="M252.42,890.86l60.06-208.01h47.46l60.06,208.01h-41.75l-40.72-157.18h-2.64l-40.72,157.18h-41.75ZM282.74,851.46v-35.74h105.47v35.74h-105.47Z"/>
      <path class="cls-1" d="M442.12,890.86v-208.01h38.67v208.01h-38.67ZM478.74,890.86v-36.91h16.26c19.04,0,33.33-5.44,42.85-16.33,9.52-10.89,14.28-26.83,14.28-47.83,0-23.04-4.76-40.48-14.28-52.29-9.52-11.81-23.8-17.72-42.85-17.72h-15.67l-3.52-36.91h19.19c65.13,0,97.71,35.65,97.71,106.93,0,67.38-32.57,101.07-97.71,101.07h-16.26Z"/>
      <path class="cls-1" d="M617.9,890.86v-208.01h38.67v208.01h-38.67ZM654.52,890.86v-36.91h16.26c19.04,0,33.33-5.44,42.85-16.33,9.52-10.89,14.28-26.83,14.28-47.83,0-23.04-4.76-40.48-14.28-52.29-9.52-11.81-23.8-17.72-42.85-17.72h-15.67l-3.52-36.91h19.19c65.13,0,97.71,35.65,97.71,106.93,0,67.38-32.57,101.07-97.71,101.07h-16.26Z"/>
    </g>
  </g>
</svg>