<?xml version="1.0" encoding="UTF-8"?>
<svg id="Calque_2" data-name="Calque 2" xmlns="http://www.w3.org/2000/svg" viewBox="0 0 1024 1024">
  <defs>
    <style>
      .cls-1, .cls-2, .cls-3 {
        fill: #fff;
      }

      .cls-4 {
        stroke-linecap: round;
      }

      .cls-4, .cls-2, .cls-3, .cls-5 {
        stroke: #000;
        stroke-miterlimit: 10;
      }

      .cls-4, .cls-2, .cls-5 {
        stroke-width: 20px;
      }

      .cls-4, .cls-6, .cls-5 {
        fill: none;
      }

      .cls-3 {
        stroke-width: 10px;
      }
    </style>
  </defs>
  <g id="Altitude">
    <g id="Calque_1-2" data-name="Calque 1">
      <polygon class="cls-1" points="49 926.19 49 761.89 356.6 282.16 377.09 277.4 392.22 288.03 602.88 592.34 615.62 591.91 671.05 519.17 682.49 512 693.64 519.19 959.28 870.18 959.28 926.19 49 926.19"/>
      <path class="cls-5" d="m49,761.89l301.32-473.08c9.48-14.88,31.83-15.3,41.9-.79l229.33,331.28"/>
      <path class="cls-5" d="m473.61,778.23l99.66-130.76,97.78-128.3c5.58-7.35,17.01-7.34,22.59.02l68.35,90.31"/>
      <line class="cls-2" x1="821.99" y1="688.78" x2="959.28" y2="870.18"/>
      <path class="cls-3" d="m274.58,542.3l66.76-21.22c14.44-4.59,30.33-1.39,41.63,8.39l46.09,39.89c13.34,11.55,32.82,13.75,48.59,5.49l86.01-39.17-171.44-247.65c-10.08-14.51-32.42-14.09-41.9.79l-142.03,222.99,24.12,21.62c11.31,10.14,27.48,13.54,42.17,8.87Z"/>
      <path class="cls-3" d="m749.23,654.07l-41.71,8.76c-13.74,2.89-28.09,1.26-40.76-4.61l-29.74-13.79c-12.66-5.87-27.01-7.49-40.75-4.61l-23,7.65,97.78-128.3c5.58-7.35,17.01-7.34,22.59.02l68.35,90.31"/>
      <path class="cls-3" d="m949.54,899.84l-13.47-14.06c-12.58-13.13-33.49-13.35-46.35-.49l-11.96,11.96c-12.76,12.76-33.47,12.65-46.1-.23l-12.39-12.64c-12.29-12.54-32.33-13.02-45.21-1.09l-17.41,16.13c-12.69,11.76-32.37,11.48-44.73-.62l-16.28-15.94c-12.11-11.85-31.29-12.39-44.04-1.24l-21.41,18.73c-12.89,11.27-32.32,10.59-44.38-1.57l-14.28-14.4c-12.42-12.52-32.56-12.82-45.35-.69l-15.14,14.36c-13.01,12.34-33.56,11.79-45.89-1.24l-10.45-11.05c-12.44-13.15-33.22-13.57-46.19-.95l-10.38,10.1c-13.93,13.56-36.57,11.91-48.38-3.53h0c-11.95-15.62-34.94-17.09-48.79-3.12l-7.58,7.64c-13.16,13.28-34.79,12.71-47.24-1.25l-5.76-6.46c-12.65-14.18-34.71-14.5-47.77-.7l-5.25,5.55c-13.62,14.4-36.86,13.32-49.09-2.28l-.98-1.25c-11.69-14.91-33.61-16.67-47.53-3.82l-15.31,14.13"/>
    </g>
    <g id="Calque_2-2" data-name="Calque 2">
      <line class="cls-4" x1="680.94" y1="125.91" x2="903.05" y2="125.91"/>
      <line class="cls-4" x1="680.94" y1="855.36" x2="903.05" y2="855.36"/>
      <g>
        <line class="cls-5" x1="790.99" y1="148.77" x2="790.99" y2="832.5"/>
        <polygon points="757.09 188.61 790.99 154.68 824.9 188.61 824.9 159.82 790.99 125.91 757.09 159.82 757.09 188.61"/>
        <polygon points="757.09 792.66 790.99 826.59 824.9 792.66 824.9 821.45 790.99 855.36 757.09 821.45 757.09 792.66"/>
      </g>
    </g>
    <path d="m825.99,554.68v-90.58h20.76l2.05,19.14v71.44h-22.82Zm34.78,0v-63.06c0-5.13-1.82-7.69-5.47-7.69-4.33,0-6.49,3.39-6.49,10.17l-5.3-18.71h6.49c1.25-8.66,5.84-12.99,13.76-12.99,4.39,0,7.85,1.62,10.38,4.87,2.53,3.25,3.8,8.18,3.8,14.78v72.63h-17.17Zm28.8,0v-61.35c0-6.27-1.82-9.4-5.47-9.4-4.1,0-6.15,3.39-6.15,10.17l-6.15-18.71h7.69c.51-4.04,2.09-7.22,4.74-9.53,2.65-2.31,6.14-3.46,10.47-3.46,6.1,0,10.55,1.68,13.37,5.04,2.82,3.36,4.23,8.8,4.23,16.32v70.92h-22.73Z"/>
    <rect class="cls-6" x="0" width="1024" height="1024"/>
  </g>
</svg>