<?xml version="1.0" encoding="UTF-8"?>
<svg id="Calque_2" data-name="Calque 2" xmlns="http://www.w3.org/2000/svg" viewBox="0 0 1024 1024">
  <defs>
    <style>
      .cls-1 {
        fill: #fff;
      }

      .cls-1, .cls-2 {
        stroke: #000;
        stroke-miterlimit: 10;
        stroke-width: 20px;
      }

      .cls-3, .cls-2 {
        fill: none;
      }
    </style>
  </defs>
  <g id="Diameter">
    <circle class="cls-1" cx="517.27" cy="519.64" r="411.43"/>
    <g>
      <line class="cls-2" x1="128.7" y1="519.64" x2="905.84" y2="519.64"/>
      <polygon points="168.53 553.55 134.61 519.64 168.53 485.74 139.74 485.74 105.84 519.64 139.74 553.55 168.53 553.55"/>
      <polygon points="866 553.55 899.92 519.64 866 485.74 894.79 485.74 928.69 519.64 894.79 553.55 866 553.55"/>
    </g>
    <g>
      <path d="m422.84,492.5v-90.58h20.76l2.05,19.14v71.44h-22.82Zm34.78,0v-63.06c0-5.13-1.82-7.69-5.47-7.69-4.33,0-6.49,3.39-6.49,10.17l-5.3-18.71h6.49c1.25-8.66,5.84-12.99,13.76-12.99,4.39,0,7.85,1.62,10.38,4.87,2.53,3.25,3.8,8.18,3.8,14.78v72.63h-17.17Zm28.8,0v-61.35c0-6.27-1.82-9.4-5.47-9.4-4.1,0-6.15,3.39-6.15,10.17l-6.15-18.71h7.69c.51-4.04,2.09-7.22,4.74-9.53,2.65-2.31,6.14-3.46,10.47-3.46,6.1,0,10.55,1.68,13.37,5.04,2.82,3.36,4.23,8.8,4.23,16.32v70.92h-22.73Z"/>
      <path d="m525.38,492.5v-90.58h20.76l2.05,19.14v71.44h-22.82Zm34.78,0v-63.06c0-5.13-1.82-7.69-5.47-7.69-4.33,0-6.49,3.39-6.49,10.17l-5.3-18.71h6.49c1.25-8.66,5.84-12.99,13.76-12.99,4.39,0,7.85,1.62,10.38,4.87,2.53,3.25,3.8,8.18,3.8,14.78v72.63h-17.17Zm28.8,0v-61.35c0-6.27-1.82-9.4-5.47-9.4-4.1,0-6.15,3.39-6.15,10.17l-6.15-18.71h7.69c.51-4.04,2.09-7.22,4.74-9.53,2.65-2.31,6.14-3.46,10.47-3.46,6.1,0,10.55,1.68,13.37,5.04,2.82,3.36,4.23,8.8,4.23,16.32v70.92h-22.73Z"/>
    </g>
    <rect class="cls-3" width="1024" height="1024"/>
  </g>
</svg>