<?xml version="1.0" encoding="UTF-8"?><svg id="b" xmlns="http://www.w3.org/2000/svg" width="1024" height="1024" viewBox="0 0 1024 1024"><g id="c"><polyline points="81.87 877.14 649.02 877.14 649.02 149.23 81.87 149.23" fill="#fff" stroke="#000" stroke-miterlimit="10" stroke-width="20"/><ellipse cx="655.91" cy="512" rx="106.02" ry="363.96" fill="#fff" stroke="#000" stroke-miterlimit="10" stroke-width="20"/><line x1="756.8" y1="399.85" x2="663.48" y2="148.97" fill="none" stroke="#000" stroke-miterlimit="10" stroke-width="10"/><polyline points="631.05 158.11 761.93 509.93 761.93 509.94" fill="none" stroke="#000" stroke-miterlimit="10" stroke-width="10"/><polyline points="606.82 189.3 606.82 189.31 758.93 598.23 758.93 598.24" fill="none" stroke="#000" stroke-miterlimit="10" stroke-width="10"/><line x1="750.99" y1="673.19" x2="587.54" y2="233.78" fill="none" stroke="#000" stroke-miterlimit="10" stroke-width="10"/><polyline points="572.16 288.77 739.11 737.6 739.11 737.61" fill="none" stroke="#000" stroke-miterlimit="10" stroke-width="10"/><polyline points="560.43 353.55 560.43 353.56 723.59 792.17" fill="none" stroke="#000" stroke-miterlimit="10" stroke-width="10"/><polyline points="552.66 428.99 704.13 836.2 704.13 836.21" fill="none" stroke="#000" stroke-miterlimit="10" stroke-width="10"/><polyline points="549.89 517.87 549.9 517.88 679.68 866.77" fill="none" stroke="#000" stroke-miterlimit="10" stroke-width="10"/><polyline points="555.5 629.27 555.51 629.29 646.78 874.63" fill="none" stroke="#000" stroke-miterlimit="10" stroke-width="10"/><line x1="156.57" y1="263.54" x2="403.44" y2="263.54" fill="none" stroke="#000" stroke-miterlimit="10" stroke-width="10"/><polygon points="383.63 292.6 492.04 263.54 383.63 234.49 383.63 292.6" fill="#000" stroke-width="0"/><line x1="29.97" y1="379.04" x2="276.85" y2="379.04" fill="none" stroke="#000" stroke-miterlimit="10" stroke-width="10"/><polygon points="257.04 408.1 365.45 379.04 257.04 349.99 257.04 408.1" fill="#000" stroke-width="0"/><line x1="128.08" y1="510.1" x2="374.96" y2="510.1" fill="none" stroke="#000" stroke-miterlimit="10" stroke-width="10"/><polygon points="355.15 539.16 463.55 510.1 355.15 481.05 355.15 539.16" fill="#000" stroke-width="0"/><line x1="88.76" y1="639" x2="335.64" y2="639" fill="none" stroke="#000" stroke-miterlimit="10" stroke-width="10"/><polygon points="315.83 668.06 424.24 639 315.83 609.95 315.83 668.06" fill="#000" stroke-width="0"/><line x1="156.57" y1="767.9" x2="403.44" y2="767.9" fill="none" stroke="#000" stroke-miterlimit="10" stroke-width="10"/><polygon points="383.63 796.96 492.04 767.9 383.63 738.85 383.63 796.96" fill="#000" stroke-width="0"/><line x1="568.88" y1="510.1" x2="856.01" y2="510.1" fill="none" stroke="#000" stroke-miterlimit="10" stroke-width="175"/><polygon points="834.63 350.64 834.63 669.55 994.03 510.12 834.63 350.64" fill="#000" stroke-width="0"/><path d="M575.41,571.13v-90.58h20.76l2.05,19.14v71.44h-22.82ZM610.19,571.13v-63.06c0-5.13-1.82-7.69-5.47-7.69-4.33,0-6.49,3.39-6.49,10.17l-5.3-18.71h6.49c1.25-8.66,5.84-12.99,13.76-12.99,4.39,0,7.85,1.62,10.38,4.87,2.53,3.25,3.8,8.18,3.8,14.78v72.63h-17.17ZM638.99,571.13v-61.35c0-6.27-1.82-9.4-5.47-9.4-4.1,0-6.15,3.39-6.15,10.17l-6.15-18.71h7.69c.51-4.04,2.09-7.22,4.74-9.53,2.65-2.31,6.14-3.46,10.47-3.46,6.1,0,10.55,1.68,13.37,5.04,2.82,3.36,4.23,8.8,4.23,16.32v70.92h-22.73Z" fill="#fff" stroke-width="0"/><path d="M688.76,482.96l-1.2-11.46c4.65-.6,8.43-1.46,11.33-2.59,2.91-1.13,5.04-2.49,6.4-4.08,1.36-1.59,2.04-3.39,2.04-5.38,0-1.86-.62-3.3-1.87-4.31-1.25-1.01-3.1-1.52-5.55-1.52-2.66,0-5.58.53-8.77,1.59-3.19,1.06-6.21,2.64-9.07,4.73l-6.88-10.16c3.19-3.06,6.86-5.26,11.01-6.63,4.15-1.36,8.78-2.04,13.9-2.04,6.74,0,11.94,1.37,15.59,4.11,3.65,2.74,5.48,6.65,5.48,11.73,0,4.45-1.52,8.31-4.56,11.58-3.04,3.27-7,5.54-11.88,6.8v5.13l-15.99,2.49ZM695.44,513.85c-3.82,0-7.32-.22-10.51-.65-3.19-.43-6.01-1.01-8.47-1.74l1.25-12.9c2.16.56,4.57,1.16,7.25,1.79,2.67.63,6.04.95,10.09.95,4.38,0,7.78-.76,10.19-2.29,2.41-1.53,3.61-3.69,3.61-6.48,0-2.06-.72-3.79-2.17-5.21-1.45-1.41-3.55-2.49-6.3-3.24-2.76-.75-6.09-1.12-10.01-1.12h-1.59l-1.2-11.46,14.4,5.33c6.14.07,11.13,1.59,14.97,4.58,3.84,2.99,5.75,7.16,5.75,12.5,0,6.31-2.38,11.21-7.12,14.7s-11.46,5.23-20.13,5.23Z" fill="#fff" stroke-width="0"/><path d="M736.45,587.36l66.22-153.81h23.5l-66.22,153.81h-23.5Z" fill="#fff" stroke-width="0"/><path d="M845.05,571.13v-128.17h23.16v128.17h-23.16ZM898.63,571.13v-54.69c0-5.07-1.13-8.97-3.38-11.71-2.25-2.73-5.46-4.1-9.61-4.1-11.62,0-17.43,7.95-17.43,23.84l-5.3-27.51h7.52c.85-6.09,2.93-10.64,6.24-13.63,3.3-2.99,8.32-4.49,15.04-4.49,9.57,0,16.97,2.91,22.22,8.72,5.24,5.81,7.86,14.01,7.86,24.61v58.96h-23.16Z" fill="#fff" stroke-width="0"/><rect width="1024" height="1024" fill="none" stroke-width="0"/></g></svg>