<?xml version="1.0" encoding="UTF-8"?><svg id="b" xmlns="http://www.w3.org/2000/svg" width="1024" height="1024" viewBox="0 0 1024 1024"><g id="c"><rect x="91.08" y="257.42" width="841.85" height="509.16" fill="#fff" stroke="#000" stroke-miterlimit="10" stroke-width="20"/><line x1="385.15" y1="743.72" x2="385.15" y2="280.28" fill="none" stroke="#000" stroke-miterlimit="10" stroke-width="20"/><polygon points="419.06 703.88 385.15 737.81 351.25 703.88 351.25 732.67 385.15 766.58 419.06 732.67 419.06 703.88" fill="#000" stroke-width="0"/><polygon points="419.06 320.12 385.15 286.19 351.25 320.12 351.25 291.33 385.15 257.42 419.06 291.33 419.06 320.12" fill="#000" stroke-width="0"/><path d="M430.22,568.54v-90.58h20.76l2.05,19.14v71.44h-22.82ZM464.99,568.54v-63.06c0-5.13-1.82-7.69-5.47-7.69-4.33,0-6.49,3.39-6.49,10.17l-5.3-18.71h6.49c1.25-8.66,5.84-12.99,13.76-12.99,4.39,0,7.85,1.62,10.38,4.87,2.53,3.25,3.8,8.18,3.8,14.78v72.63h-17.17ZM493.79,568.54v-61.35c0-6.27-1.82-9.4-5.47-9.4-4.1,0-6.15,3.39-6.15,10.17l-6.15-18.71h7.69c.51-4.04,2.09-7.22,4.74-9.53,2.65-2.31,6.14-3.46,10.47-3.46,6.1,0,10.55,1.68,13.37,5.04,2.82,3.36,4.23,8.8,4.23,16.32v70.92h-22.73Z" fill="#000" stroke-width="0"/><path d="M532.75,568.54v-90.58h20.76l2.05,19.14v71.44h-22.82ZM567.53,568.54v-63.06c0-5.13-1.82-7.69-5.47-7.69-4.33,0-6.49,3.39-6.49,10.17l-5.3-18.71h6.49c1.25-8.66,5.84-12.99,13.76-12.99,4.39,0,7.85,1.62,10.38,4.87,2.53,3.25,3.8,8.18,3.8,14.78v72.63h-17.17ZM596.33,568.54v-61.35c0-6.27-1.82-9.4-5.47-9.4-4.1,0-6.15,3.39-6.15,10.17l-6.15-18.71h7.69c.51-4.04,2.09-7.22,4.74-9.53,2.65-2.31,6.14-3.46,10.47-3.46,6.1,0,10.55,1.68,13.37,5.04,2.82,3.36,4.23,8.8,4.23,16.32v70.92h-22.73Z" fill="#000" stroke-width="0"/><rect x="0" width="1024" height="1024" fill="none" stroke-width="0"/></g></svg>