<?xml version="1.0" encoding="UTF-8"?><svg id="b" xmlns="http://www.w3.org/2000/svg" width="1024" height="1024" viewBox="0 0 1024 1024"><g id="c"><path d="M710.25,78.88v548.48c0,89.37-72.44,161.82-161.81,161.82H46.23v-161.82h421.3c22.34,0,42.57-9.06,57.21-23.7,14.65-14.64,23.7-34.86,23.7-57.2V78.88h161.81Z" fill="#fff" stroke="#000" stroke-miterlimit="10" stroke-width="20"/><line x1="467.53" y1="627.36" x2="467.53" y2="789.18" fill="#fff" stroke="#000" stroke-miterlimit="10" stroke-width="20"/><line x1="548.44" y1="546.46" x2="710.25" y2="546.46" fill="#fff" stroke="#000" stroke-miterlimit="10" stroke-width="20"/><line x1="783.42" y1="523.6" x2="783.42" y2="101.74" fill="none" stroke="#000" stroke-miterlimit="10" stroke-width="20"/><polygon points="817.33 483.76 783.42 517.69 749.52 483.76 749.52 512.55 783.42 546.46 817.33 512.55 817.33 483.76" fill="#000" stroke-width="0"/><polygon points="817.33 141.58 783.42 107.65 749.52 141.58 749.52 112.79 783.42 78.88 817.33 112.79 817.33 141.58" fill="#000" stroke-width="0"/><line x1="69.09" y1="849.14" x2="444.67" y2="849.14" fill="none" stroke="#000" stroke-miterlimit="10" stroke-width="20"/><polygon points="108.93 883.05 75 849.14 108.93 815.24 80.14 815.24 46.23 849.14 80.14 883.05 108.93 883.05" fill="#000" stroke-width="0"/><polygon points="404.83 883.05 438.76 849.14 404.83 815.24 433.62 815.24 467.53 849.14 433.62 883.05 404.83 883.05" fill="#000" stroke-width="0"/><path d="M817.44,376.72v-121.34h22.56v121.34h-22.56ZM832.99,317.08v-8.37h33.67v8.37h-33.67ZM838.8,311.26v-9.06h16.49c5.3,0,9.3-1.15,12.01-3.46,2.71-2.31,4.06-5.71,4.06-10.21,0-4.1-1.44-7.19-4.32-9.27-2.88-2.08-7.19-3.12-12.95-3.12h-14.95l-2.05-20.76h17.86c12.76,0,22.63,2.61,29.61,7.82,6.98,5.21,10.47,12.63,10.47,22.26,0,8.26-2.71,14.63-8.12,19.1-5.41,4.47-13.07,6.71-22.99,6.71h-25.12ZM838.8,376.72v-20.76h21.62c6.15,0,10.94-1.45,14.36-4.36s5.13-6.98,5.13-12.22-1.79-9.2-5.38-12.05c-3.59-2.85-8.69-4.27-15.29-4.27h-20.08l-2.05-9.06h33.5c10.54,0,18.67,2.56,24.4,7.69,5.72,5.13,8.59,12.36,8.59,21.7,0,10.6-3.32,18.8-9.95,24.61-6.64,5.81-16.05,8.72-28.24,8.72h-26.57Z" fill="#000" stroke-width="0"/><path d="M915.88,376.72v-90.58h20.76l2.05,19.14v71.44h-22.82ZM950.66,376.72v-63.06c0-5.13-1.82-7.69-5.47-7.69-4.33,0-6.49,3.39-6.49,10.17l-5.3-18.71h6.49c1.25-8.66,5.84-12.99,13.76-12.99,4.39,0,7.85,1.62,10.38,4.87,2.53,3.25,3.8,8.18,3.8,14.78v72.63h-17.17ZM979.45,376.72v-61.35c0-6.27-1.82-9.4-5.47-9.4-4.1,0-6.15,3.39-6.15,10.17l-6.15-18.71h7.69c.51-4.04,2.09-7.22,4.74-9.53,2.65-2.31,6.14-3.46,10.47-3.46,6.1,0,10.55,1.68,13.37,5.04,2.82,3.36,4.23,8.8,4.23,16.32v70.92h-22.73Z" fill="#000" stroke-width="0"/><path d="M105.46,376.72l35.03-121.34h27.69l35.03,121.34h-24.35l-23.75-91.69h-1.54l-23.75,91.69h-24.35ZM123.15,353.73v-20.85h61.52v20.85h-61.52Z" fill="#000" stroke-width="0"/><path d="M214.16,326.82v-21.36h85.45v21.36h-85.45ZM245.43,360.48v-88.7h22.9v88.7h-22.9Z" fill="#000" stroke-width="0"/><path d="M320.37,376.72v-121.34h22.56v121.34h-22.56ZM335.92,317.08v-8.37h33.67v8.37h-33.67ZM341.73,311.26v-9.06h16.49c5.3,0,9.3-1.15,12.01-3.46,2.71-2.31,4.06-5.71,4.06-10.21,0-4.1-1.44-7.19-4.32-9.27-2.88-2.08-7.19-3.12-12.95-3.12h-14.95l-2.05-20.76h17.86c12.76,0,22.63,2.61,29.61,7.82,6.98,5.21,10.47,12.63,10.47,22.26,0,8.26-2.71,14.63-8.12,19.1-5.41,4.47-13.07,6.71-22.99,6.71h-25.12ZM341.73,376.72v-20.76h21.62c6.15,0,10.94-1.45,14.36-4.36s5.13-6.98,5.13-12.22-1.79-9.2-5.38-12.05c-3.59-2.85-8.69-4.27-15.29-4.27h-20.08l-2.05-9.06h33.5c10.54,0,18.67,2.56,24.4,7.69,5.72,5.13,8.59,12.36,8.59,21.7,0,10.6-3.32,18.8-9.95,24.61-6.64,5.81-16.05,8.72-28.24,8.72h-26.57Z" fill="#000" stroke-width="0"/><path d="M156.73,1002.78l35.03-121.34h27.69l35.03,121.34h-24.35l-23.75-91.69h-1.54l-23.75,91.69h-24.35ZM174.42,979.8v-20.85h61.52v20.85h-61.52Z" fill="#000" stroke-width="0"/><path d="M265,1002.78v-90.58h20.76l2.05,19.14v71.44h-22.82ZM299.78,1002.78v-63.06c0-5.13-1.82-7.69-5.47-7.69-4.33,0-6.49,3.39-6.49,10.17l-5.3-18.71h6.49c1.25-8.66,5.84-12.99,13.76-12.99,4.39,0,7.85,1.62,10.38,4.87,2.53,3.25,3.8,8.17,3.8,14.78v72.63h-17.17ZM328.57,1002.78v-61.35c0-6.27-1.82-9.4-5.47-9.4-4.1,0-6.15,3.39-6.15,10.17l-6.15-18.71h7.69c.51-4.04,2.09-7.22,4.74-9.53,2.65-2.31,6.14-3.46,10.47-3.46,6.1,0,10.55,1.68,13.37,5.04,2.82,3.36,4.23,8.8,4.23,16.32v70.92h-22.73Z" fill="#000" stroke-width="0"/><rect width="1024" height="1024" fill="none" stroke-width="0"/></g></svg>