<?xml version="1.0" encoding="UTF-8"?><svg id="b" xmlns="http://www.w3.org/2000/svg" width="1024" height="1024" viewBox="0 0 1024 1024"><g id="c"><rect x="276.36" y="142.01" width="471.56" height="736.75" fill="#fff" stroke="#000" stroke-miterlimit="10" stroke-width="20"/><polyline points="546.39 142.01 610.53 206.15 721.37 316.99 747.92 343.54" fill="none" stroke="#000" stroke-miterlimit="10" stroke-width="10"/><polyline points="324.72 142.01 387.71 204.99 499.7 316.98 610.54 427.82 721.37 538.66 747.92 565.2" fill="none" stroke="#000" stroke-miterlimit="10" stroke-width="10"/><polyline points="276.36 315.32 276.87 315.83 388.86 427.82 499.7 538.66 610.54 649.5 721.37 760.33 747.92 786.88" fill="none" stroke="#000" stroke-miterlimit="10" stroke-width="10"/><polyline points="276.36 537 278.02 538.66 388.86 649.5 499.7 760.34 610.53 871.17 618.12 878.76" fill="none" stroke="#000" stroke-miterlimit="10" stroke-width="10"/><polyline points="276.36 760.98 276.87 761.49 387.71 872.33 394.14 878.76" fill="none" stroke="#000" stroke-miterlimit="10" stroke-width="10"/><polyline points="747.92 733.78 721.37 760.33 610.53 871.17 602.94 878.76" fill="none" stroke="#000" stroke-miterlimit="10" stroke-width="10"/><polyline points="747.92 512.11 721.37 538.66 610.54 649.5 499.7 760.34 387.71 872.33 381.27 878.76" fill="none" stroke="#000" stroke-miterlimit="10" stroke-width="10"/><polyline points="747.92 290.44 721.37 316.99 610.54 427.82 499.7 538.66 388.86 649.5 276.87 761.49 276.36 762" fill="none" stroke="#000" stroke-miterlimit="10" stroke-width="10"/><polyline points="674.67 142.01 610.53 206.15 499.7 316.98 388.86 427.82 278.02 538.66 276.36 540.32" fill="none" stroke="#000" stroke-miterlimit="10" stroke-width="10"/><polyline points="450.69 142.01 387.71 204.99 276.87 315.83 276.36 316.34" fill="none" stroke="#000" stroke-miterlimit="10" stroke-width="10"/><rect x="105.84" y="305.91" width="327.56" height="572.86" fill="#fff" stroke="#000" stroke-miterlimit="10" stroke-width="20"/><line x1="158.62" y1="354.29" x2="189.78" y2="401.04" fill="none" stroke="#000" stroke-miterlimit="10" stroke-width="10"/><line x1="254.04" y1="354.29" x2="285.2" y2="401.04" fill="none" stroke="#000" stroke-miterlimit="10" stroke-width="10"/><line x1="349.45" y1="354.29" x2="380.61" y2="401.04" fill="none" stroke="#000" stroke-miterlimit="10" stroke-width="10"/><line x1="158.62" y1="461.42" x2="189.78" y2="508.16" fill="none" stroke="#000" stroke-miterlimit="10" stroke-width="10"/><line x1="254.04" y1="461.42" x2="285.2" y2="508.16" fill="none" stroke="#000" stroke-miterlimit="10" stroke-width="10"/><line x1="349.45" y1="461.42" x2="380.61" y2="508.16" fill="none" stroke="#000" stroke-miterlimit="10" stroke-width="10"/><line x1="158.62" y1="568.54" x2="189.78" y2="615.28" fill="none" stroke="#000" stroke-miterlimit="10" stroke-width="10"/><line x1="254.04" y1="568.54" x2="285.2" y2="615.28" fill="none" stroke="#000" stroke-miterlimit="10" stroke-width="10"/><line x1="349.45" y1="568.54" x2="380.61" y2="615.28" fill="none" stroke="#000" stroke-miterlimit="10" stroke-width="10"/><line x1="158.62" y1="675.66" x2="189.78" y2="722.41" fill="none" stroke="#000" stroke-miterlimit="10" stroke-width="10"/><line x1="254.04" y1="675.66" x2="285.2" y2="722.41" fill="none" stroke="#000" stroke-miterlimit="10" stroke-width="10"/><line x1="349.45" y1="675.66" x2="380.61" y2="722.41" fill="none" stroke="#000" stroke-miterlimit="10" stroke-width="10"/><line x1="158.62" y1="782.79" x2="189.78" y2="829.53" fill="none" stroke="#000" stroke-miterlimit="10" stroke-width="10"/><line x1="254.04" y1="782.79" x2="285.2" y2="829.53" fill="none" stroke="#000" stroke-miterlimit="10" stroke-width="10"/><line x1="349.45" y1="782.79" x2="380.61" y2="829.53" fill="none" stroke="#000" stroke-miterlimit="10" stroke-width="10"/><rect x="230.7" y="491.49" width="609.14" height="387.28" fill="#fff" stroke="#000" stroke-miterlimit="10" stroke-width="20"/><rect x="341.37" y="619.3" width="576.79" height="262.68" fill="#fff" stroke="#000" stroke-miterlimit="10" stroke-width="20"/><line x1="526.76" y1="881.99" x2="376.25" y2="619.31" fill="none" stroke="#000" stroke-miterlimit="10" stroke-width="10"/><line x1="423.72" y1="881.99" x2="341.37" y2="738.28" fill="none" stroke="#000" stroke-miterlimit="10" stroke-width="10"/><line x1="629.81" y1="881.99" x2="479.29" y2="619.31" fill="none" stroke="#000" stroke-miterlimit="10" stroke-width="10"/><line x1="732.85" y1="881.99" x2="582.33" y2="619.31" fill="none" stroke="#000" stroke-miterlimit="10" stroke-width="10"/><line x1="835.89" y1="881.99" x2="685.38" y2="619.31" fill="none" stroke="#000" stroke-miterlimit="10" stroke-width="10"/><line x1="918.16" y1="845.74" x2="788.42" y2="619.31" fill="none" stroke="#000" stroke-miterlimit="10" stroke-width="10"/><line x1="918.16" y1="665.91" x2="891.46" y2="619.31" fill="none" stroke="#000" stroke-miterlimit="10" stroke-width="10"/><rect width="1024" height="1024" fill="none" stroke-width="0"/></g></svg>