<?xml version="1.0" encoding="UTF-8"?><svg id="b" xmlns="http://www.w3.org/2000/svg" width="1024" height="1024" viewBox="0 0 1024 1024"><g id="c"><rect x="91.08" y="257.42" width="841.85" height="509.16" fill="#fff" stroke="#000" stroke-miterlimit="10" stroke-width="20"/><line x1="123.43" y1="615.86" x2="900.57" y2="615.86" fill="none" stroke="#000" stroke-miterlimit="10" stroke-width="20"/><polygon points="163.27 649.76 129.34 615.86 163.27 581.95 134.48 581.95 100.57 615.86 134.48 649.76 163.27 649.76" fill="#000" stroke-width="0"/><polygon points="860.73 649.76 894.66 615.86 860.73 581.95 889.52 581.95 923.43 615.86 889.52 649.76 860.73 649.76" fill="#000" stroke-width="0"/><line x1="693.91" y1="743.72" x2="693.91" y2="280.28" fill="none" stroke="#000" stroke-miterlimit="10" stroke-width="20"/><polygon points="727.82 703.88 693.91 737.81 660.01 703.88 660.01 732.67 693.91 766.58 727.82 732.67 727.82 703.88" fill="#000" stroke-width="0"/><polygon points="727.82 320.12 693.91 286.19 660.01 320.12 660.01 291.33 693.91 257.42 727.82 291.33 727.82 320.12" fill="#000" stroke-width="0"/><path d="M358.07,506.41l-19.92-43.95-32.45-59.57h23.66l20.21,45.7,32.15,57.81h-23.66ZM305.71,506.41l32.15-57.81,20.21-45.7h23.66l-33.33,59.57-19.04,43.95h-23.66Z" fill="#000" stroke-width="0"/><path d="M400.42,548.99l5.86-67.38h21.83l-8.79,67.38h-18.9Z" fill="#000" stroke-width="0"/><path d="M503.86,506.41l-19.92-43.95-32.45-59.57h23.66l20.21,45.7,32.15,57.81h-23.66ZM451.49,506.41l32.15-57.81,20.21-45.7h23.66l-33.33,59.57-19.04,43.95h-23.66Z" fill="#000" stroke-width="0"/><rect width="1024" height="1024" fill="none" stroke-width="0"/></g></svg>