<?xml version="1.0" encoding="UTF-8"?>
<svg id="Calque_2" data-name="Calque 2" xmlns="http://www.w3.org/2000/svg" viewBox="0 0 1024 1024">
  <defs>
    <style>
      .cls-1, .cls-2 {
        fill: #fff;
      }

      .cls-3 {
        font-family: MyriadPro-Regular, 'Myriad Pro';
        font-size: 12px;
      }

      .cls-2 {
        stroke-width: 20px;
      }

      .cls-2, .cls-4 {
        stroke: #000;
        stroke-miterlimit: 10;
      }

      .cls-5 {
        letter-spacing: -.01em;
      }

      .cls-6 {
        letter-spacing: 0em;
      }

      .cls-4 {
        stroke-width: 10px;
      }

      .cls-4, .cls-7 {
        fill: none;
      }

      .cls-8 {
        letter-spacing: -.01em;
      }
    </style>
  </defs>
  <g id="Section">
    <g>
      <circle class="cls-2" cx="512" cy="512" r="411.43"/>
      <line class="cls-4" x1="746.48" y1="850.12" x2="277.52" y2="173.88"/>
      <line class="cls-4" x1="781.82" y1="822.61" x2="315.63" y2="150.37"/>
      <line class="cls-4" x1="814.33" y1="791.04" x2="356.57" y2="130.94"/>
      <line class="cls-4" x1="843.89" y1="755.19" x2="400.52" y2="115.86"/>
      <line class="cls-4" x1="870.16" y1="714.61" x2="447.8" y2="105.55"/>
      <line class="cls-4" x1="892.61" y1="668.52" x2="498.9" y2="100.78"/>
      <line class="cls-4" x1="910.29" y1="615.55" x2="554.69" y2="102.76"/>
      <line class="cls-4" x1="921.4" y1="553.11" x2="616.95" y2="114.08"/>
      <line class="cls-4" x1="921.81" y1="475.23" x2="690.01" y2="140.97"/>
      <polyline class="cls-4" points="793.92 212.35 891.74 353.4 891.75 353.41"/>
      <polyline class="cls-4" points="132.25 670.59 132.26 670.6 230.08 811.66"/>
      <line class="cls-4" x1="333.99" y1="883.03" x2="102.19" y2="548.78"/>
      <line class="cls-4" x1="407.05" y1="909.92" x2="102.6" y2="470.9"/>
      <line class="cls-4" x1="469.31" y1="921.24" x2="113.71" y2="408.46"/>
      <line class="cls-4" x1="525.1" y1="923.22" x2="131.39" y2="355.49"/>
      <line class="cls-4" x1="576.2" y1="918.45" x2="153.84" y2="309.39"/>
      <line class="cls-4" x1="623.47" y1="908.14" x2="180.11" y2="268.81"/>
      <line class="cls-4" x1="667.43" y1="893.06" x2="209.66" y2="232.96"/>
      <line class="cls-4" x1="708.37" y1="873.63" x2="242.18" y2="201.39"/>
    </g>
    <g>
      <rect class="cls-1" x="330.81" y="425.66" width="362.37" height="172.68"/>
      <g>
        <path d="m366.3,576.05v-90.58h20.76l2.05,19.14v71.44h-22.82Zm34.78,0v-63.06c0-5.13-1.82-7.69-5.47-7.69-4.33,0-6.49,3.39-6.49,10.17l-5.3-18.71h6.49c1.25-8.66,5.84-12.99,13.76-12.99,4.39,0,7.85,1.62,10.38,4.87,2.53,3.25,3.8,8.17,3.8,14.78v72.63h-17.17Zm28.8,0v-61.35c0-6.27-1.82-9.4-5.47-9.4-4.1,0-6.15,3.39-6.15,10.17l-6.15-18.71h7.69c.51-4.04,2.09-7.22,4.74-9.53,2.65-2.31,6.14-3.46,10.47-3.46,6.1,0,10.55,1.68,13.37,5.04,2.82,3.36,4.23,8.8,4.23,16.32v70.92h-22.73Z"/>
        <path d="m468.84,576.05v-90.58h20.76l2.05,19.14v71.44h-22.82Zm34.78,0v-63.06c0-5.13-1.82-7.69-5.47-7.69-4.33,0-6.49,3.39-6.49,10.17l-5.3-18.71h6.49c1.25-8.66,5.84-12.99,13.76-12.99,4.39,0,7.85,1.62,10.38,4.87,2.53,3.25,3.8,8.17,3.8,14.78v72.63h-17.17Zm28.8,0v-61.35c0-6.27-1.82-9.4-5.47-9.4-4.1,0-6.15,3.39-6.15,10.17l-6.15-18.71h7.69c.51-4.04,2.09-7.22,4.74-9.53,2.65-2.31,6.14-3.46,10.47-3.46,6.1,0,10.55,1.68,13.37,5.04,2.82,3.36,4.23,8.8,4.23,16.32v70.92h-22.73Z"/>
        <path d="m592.06,507.52v-19.14c7.58-2.11,13.23-4.32,16.96-6.62,3.73-2.31,5.6-4.68,5.6-7.13s-1.97-3.67-5.9-3.67c-4.27,0-8.66,1.08-13.16,3.25l-5.64-16.06c2.85-1.65,6.44-2.92,10.77-3.8,4.33-.88,9.03-1.32,14.1-1.32,6.67,0,12.01,1.41,16.02,4.23,4.02,2.82,6.02,6.57,6.02,11.24,0,3.42-1.27,6.58-3.8,9.48-2.54,2.91-6.57,5.78-12.09,8.63v20.93h-28.88Zm2.22,0v-17.69h44.78v17.69h-44.78Z"/>
      </g>
    </g>
    <rect class="cls-7" width="1024" height="1024"/>
    <text class="cls-3" transform="translate(508.98 586.1)"><tspan class="cls-5" x="0" y="0">L</tspan><tspan x="5.5" y="0">o</tspan><tspan class="cls-8" x="12.08" y="0">r</tspan><tspan class="cls-6" x="15.89" y="0">em ipsum</tspan></text>
  </g>
</svg>