<?xml version="1.0" encoding="UTF-8"?><svg id="b" xmlns="http://www.w3.org/2000/svg" width="1024" height="1024" viewBox="0 0 1024 1024"><g id="c"><rect x="10" y="10" width="1004" height="1004" rx="70.38" ry="70.38" fill="#fff" stroke-width="0"/><path d="M943.62,20c33.3,0,60.38,27.09,60.38,60.38v863.23c0,33.3-27.09,60.38-60.38,60.38H80.38c-33.3,0-60.38-27.09-60.38-60.38V80.38c0-33.3,27.09-60.38,60.38-60.38h863.23M943.62,0H80.38C35.99,0,0,35.99,0,80.38v863.23c0,44.4,35.99,80.38,80.38,80.38h863.23c44.4,0,80.38-35.99,80.38-80.38V80.38c0-44.4-35.99-80.38-80.38-80.38h0Z" fill="#000" stroke-width="0"/><path d="M168.64,515.65l120.12-416.02h94.92l120.12,416.02h-83.5l-81.45-314.36h-5.27l-81.45,314.36h-83.5ZM211.71,515.65v-71.19h246.09v71.19h-246.09Z" fill="#000" stroke-width="0"/><path d="M556.24,650.41V205.1h73.54l5.86,65.62v379.69h-79.39ZM718.54,521.51c-21.68,0-39.07-5.18-52.15-15.53-13.09-10.35-21.19-25.88-24.32-46.58h-27.54l21.09-98.73c0,30.08,4.49,51.96,13.48,65.62,8.98,13.67,24.71,20.51,47.17,20.51,20.7,0,36.37-7.22,47.02-21.68,10.64-14.45,15.97-35.93,15.97-64.45s-5.47-48.88-16.41-64.01c-10.94-15.13-26.47-22.71-46.58-22.71s-35.26,6.94-45.41,20.8c-10.16,13.87-15.23,35.84-15.23,65.92l-18.16-99.32h22.85c3.71-20.9,11.67-36.47,23.88-46.73,12.2-10.25,30.12-15.38,53.76-15.38,38.86,0,68.99,14.06,90.38,42.19s32.08,67.87,32.08,119.24-10.69,91.51-32.08,119.24c-21.39,27.74-51.32,41.6-89.79,41.6Z" fill="#000" stroke-width="0"/><path d="M241.15,893.79c-11.82,0-23.29-1-34.42-3s-21.09-4.81-29.88-8.42l5.27-39.55c10.74,4.49,21.41,7.96,32.01,10.4,10.6,2.44,20.38,3.66,29.37,3.66,10.45,0,18.46-1.85,24.02-5.57,5.57-3.71,8.35-9.03,8.35-15.97,0-9.08-5.71-16.31-17.14-21.68l-29.88-14.5c-14.75-7.23-26.17-16.16-34.28-26.81-8.11-10.64-12.16-22.41-12.16-35.3,0-18.16,6.01-32.23,18.02-42.19s29-14.94,50.98-14.94c12.79,0,24.92,2.25,36.4,6.74,11.47,4.49,21.65,10.99,30.54,19.48l-26.66,30.62c-6.74-6.45-13.53-11.4-20.36-14.87-6.84-3.46-13.43-5.2-19.78-5.2-8.6,0-15.29,1.83-20.07,5.49-4.79,3.66-7.18,8.96-7.18,15.89,0,4.59,1.68,8.94,5.05,13.04s8.18,7.81,14.43,11.13l28.12,14.5c14.65,7.62,25.95,16.5,33.91,26.66,7.96,10.16,11.94,21.05,11.94,32.67,0,18.46-6.64,32.69-19.92,42.7-13.28,10.01-32.18,15.01-56.69,15.01Z" fill="#000" stroke-width="0"/><path d="M358.34,717.57v-34.72h131.54v34.72h-131.54ZM358.34,890.86v-34.86h131.54v34.86h-131.54ZM404.63,890.86v-208.01h38.67v208.01h-38.67Z" fill="#000" stroke-width="0"/><path d="M531.19,890.86v-208.01h37.21v208.01h-37.21ZM610.44,890.86l-36.62-162.6h-15.97v-45.41h31.49l36.62,162.6h9.81v45.41h-25.34ZM631.38,890.86v-208.01h37.21v208.01h-37.21Z" fill="#000" stroke-width="0"/><path d="M790.61,893.79c-31.84,0-55.74-8.94-71.71-26.81s-23.95-44.68-23.95-80.42c0-33.89,8.25-60.13,24.76-78.74,16.5-18.6,39.74-27.91,69.73-27.91,15.13,0,28.2,2.37,39.18,7.1,10.99,4.74,19.56,11.45,25.71,20.14l-24.32,27.98c-4.49-5.76-10.13-10.28-16.92-13.55-6.79-3.27-14.09-4.91-21.9-4.91-17.58,0-31.23,5.96-40.94,17.87-9.72,11.92-14.57,28.76-14.57,50.54,0,23.93,4.88,41.87,14.65,53.83,9.76,11.96,24.36,17.94,43.8,17.94,9.28,0,17.45-.9,24.54-2.71,7.08-1.81,12.87-3.34,17.36-4.61l13.92,35.45c-4.3,1.27-11.82,3.05-22.56,5.35-10.74,2.29-23,3.44-36.77,3.44ZM777.14,818.79v-35.6h71.92v35.6h-71.92ZM811.56,885v-101.81h38.38v101.81h-38.38Z" fill="#000" stroke-width="0"/></g></svg>